<svg xmlns="http://www.w3.org/2000/svg" width="169.454" height="63.454" viewBox="0 0 169.454 63.454"><defs><style>.a{opacity:0.43;}.b,.c,.d{fill:#fff;}.c{opacity:0.5;}.d{opacity:0.53;}</style></defs><g class="a"><path class="b" d="M5.742,19.5A5.742,5.742,0,0,1,4.118,8.25c0-.041,0-.084,0-.125a8.125,8.125,0,0,1,16.25-.108h.326a5.742,5.742,0,0,1,0,11.483Z" transform="matrix(1, 0.017, -0.017, 1, 0.34, 43.495)"/><path class="c" d="M4.285,14.552A4.285,4.285,0,0,1,0,10.267q0-.192.017-.381Q0,9.716,0,9.54A3.559,3.559,0,0,1,3.072,6.015,6.063,6.063,0,0,1,15.2,5.982h.244a4.285,4.285,0,0,1,0,8.57Z" transform="matrix(1, 0.017, -0.017, 1, 149.731, 43.512)"/><path class="d" d="M4.6,15.632A4.6,4.6,0,0,1,0,11.03q0-.207.018-.409Q0,10.436,0,10.247A3.821,3.821,0,0,1,3.3,6.462a6.513,6.513,0,0,1,13.025-.035h.261a4.6,4.6,0,1,1,0,9.205Z" transform="matrix(1, 0.017, -0.017, 1, 37.206, 16.808)"/><path class="b" d="M6.071,20.618A6.071,6.071,0,0,1,0,14.547q0-.273.024-.539Q0,13.765,0,13.516A5.041,5.041,0,0,1,4.353,8.523a8.591,8.591,0,0,1,17.181-.047h.345a6.071,6.071,0,0,1,0,12.142Z" transform="matrix(1, 0.017, -0.017, 1, 84.631, 30.136)"/><path class="b" d="M4.84,16.437A4.84,4.84,0,0,1,0,11.6q0-.218.019-.43Q0,10.974,0,10.776A4.019,4.019,0,0,1,3.471,6.794a6.848,6.848,0,0,1,13.7-.037h.274a4.84,4.84,0,1,1,0,9.68Z" transform="matrix(1, 0.017, -0.017, 1, 129.963, 0)"/></g></svg>