<svg xmlns="http://www.w3.org/2000/svg" width="184.925" height="78.578" viewBox="0 0 184.925 78.578"><defs><style>.a{opacity:0.69;}.b{fill:#93a5ff;}.c{opacity:0.36;}.d{opacity:0.5;}.e{opacity:0.51;}</style></defs><g class="a"><g transform="translate(125.994 61.92)"><rect class="b" width="6.319" height="6.08" rx="3.04" transform="translate(15.158 8.023) rotate(135)"/><rect class="b" width="6.319" height="16.658" rx="3.159"/></g><g class="c" transform="translate(99.974)"><rect class="b" width="5.726" height="5.51" rx="2.755" transform="translate(13.737 7.272) rotate(135)"/><rect class="b" width="5.726" height="15.097" rx="2.863"/></g><g transform="translate(0 20.368)"><rect class="b" width="7.742" height="7.45" rx="3.725" transform="translate(18.573 9.831) rotate(135)"/><rect class="b" width="7.742" height="20.412" rx="3.871"/></g><g class="d" transform="translate(73.599 33.269)"><rect class="b" width="5.846" height="5.625" rx="2.813" transform="translate(14.023 7.423) rotate(135)"/><rect class="b" width="5.846" height="15.411" rx="2.923"/></g><g class="e" transform="translate(32.868 50.226)"><rect class="b" width="5.726" height="5.51" rx="2.755" transform="translate(13.737 7.272) rotate(135)"/><rect class="b" width="5.726" height="15.097" rx="2.863"/></g><g class="d" transform="translate(171.188 22.929)"><rect class="b" width="5.726" height="5.51" rx="2.755" transform="translate(13.737 7.272) rotate(135)"/><rect class="b" width="5.726" height="15.097" rx="2.863"/></g></g></svg>